<?xml version='1.0' encoding='iso-8859-1'?>
<svg version="1.1" xmlns="http://www.w3.org/2000/svg" viewBox="0 0 60 60" xmlns:xlink="http://www.w3.org/1999/xlink" enable-background="new 0 0 60 60">
  <g>
    <g>
      <path d="m23,44.491c-2.209,0-4,1.791-4,4 0,2.209 1.791,4 4,4 2.209,0 4-1.791 4-4 0-2.209-1.791-4-4-4zm0,6c-1.105,0-2-0.895-2-2 0-1.105 0.895-2 2-2s2,0.895 2,2c0,1.105-0.895,2-2,2zm26-6c-2.209,0-4,1.791-4,4 0,2.209 1.791,4 4,4s4-1.791 4-4c0-2.209-1.791-4-4-4zm0,6c-1.105,0-2-0.895-2-2 0-1.105 0.895-2 2-2 1.105,0 2,0.895 2,2 0,1.105-0.895,2-2,2zm10.981-37.092c-0.005-0.055-0.019-0.106-0.032-0.159-0.018-0.069-0.036-0.135-0.068-0.198-0.029-0.059-0.068-0.109-0.109-0.162-0.036-0.045-0.068-0.089-0.111-0.127-0.057-0.052-0.122-0.091-0.192-0.129-0.043-0.023-0.082-0.047-0.128-0.064-0.031-0.012-0.055-0.035-0.088-0.044-0.062-0.017-0.123-0.007-0.185-0.012-0.024-0.002-0.044-0.014-0.068-0.014h-40c-0.552,0-1,0.448-1,1 0,0.552 0.448,1 1,1h38.687l-6.445,24h-31.456l-7.798-29.941c0.002-0.02 0.012-0.037 0.012-0.058 0-0.387-0.227-0.713-0.548-0.879-0.002-0.001-0.004-0.003-0.007-0.005-0.055-0.028-0.113-0.044-0.173-0.061-0.098-0.035-0.198-0.054-0.305-0.055h-9.967c-0.552,0-1,0.448-1,1 0,0.552 0.448,1 1,1h9.214l7.798,29.943c-0.002,0.02-0.012,0.037-0.012,0.057 0,0.387 0.227,0.713 0.548,0.879 0.002,0.001 0.004,0.003 0.007,0.005 0.055,0.028 0.113,0.044 0.173,0.061 0.098,0.035 0.198,0.054 0.304,0.055h32.968c0.013,0 0.023-0.007 0.036-0.007 0.108-0.003 0.209-0.026 0.309-0.062 0.021-0.008 0.043-0.013 0.064-0.022 0.099-0.044 0.185-0.105 0.265-0.179 0.015-0.014 0.031-0.024 0.045-0.039 0.07-0.072 0.122-0.156 0.168-0.249 0.014-0.029 0.03-0.055 0.042-0.085 0.012-0.031 0.035-0.055 0.044-0.088l6.988-26.022c0.006-0.024 0-0.047 0.005-0.071 0.009-0.059 0.034-0.113 0.034-0.176 0-0.033-0.016-0.06-0.019-0.092zm-19.981,34.092h-8c-0.552,0-1,0.448-1,1 0,0.552 0.448,1 1,1h8c0.552,0 1-0.448 1-1 0-0.552-0.448-1-1-1z"/>
    </g>
  </g>
  <g>
    <g>
      <path d="m43,28.491h-3v-4h3c0.552,0 1-0.448 1-1 0-0.552-0.448-1-1-1h-3v-3c0-0.552-0.448-1-1-1-0.552,0-1,0.448-1,1v3h-4v-3c0-0.552-0.448-1-1-1-0.552,0-1,0.448-1,1v3h-3c-0.552,0-1,0.448-1,1 0,0.552 0.448,1 1,1h3v4h-3c-0.552,0-1,0.448-1,1 0,0.552 0.448,1 1,1h3v3c0,0.552 0.448,1 1,1 0.552,0 1-0.448 1-1v-3h4v3c0,0.552 0.448,1 1,1 0.552,0 1-0.448 1-1v-3h3c0.552,0 1-0.448 1-1 0-0.552-0.448-1-1-1zm-9,0v-4h4v4h-4z"/>
    </g>
  </g>
</svg>
